# xmcd
#
# Track frame offsets:
#	150
#	14411
#	26560
#	31510
#	39611
#	47411
#	49436
#	53561
#	58061
#	62636
#	66086
#	75761
#	86861
#	89786
#	92861
#	98561
#	101111
#	108686
#	111086
#	113561
#	116035
#	118586
#	121061
#	123761
#	131486
#	143111
#	146485
#	160961
#	166361
#	172736
#	189536
#	190510
#	200936
#	204011
#	222161
#	229960
#	238511
#
# Disc length: 3437 seconds
#
# Revision: 0
# Processed by: cddbd v1.5.2PL0 Copyright (c) Steve Scherf et al.
# Submitted via: dBpowerAMP V4.0
#
DISCID=fd0d6b25
DTITLE=Nikos Vertis - live gamos
DYEAR=2003
DGENRE=Greek
TTITLE0=intro
TTITLE1=poso mou leipei
TTITLE2=gia lei gia lei
TTITLE3=papse loipon
TTITLE4=thelo na do
TTITLE5=kindinos
TTITLE6=eisagogi sto mera me tin mera
TTITLE7=mera me tin mera
TTITLE8=sta 2 sou xeria
TTITLE9=stolidi eisai moni sou
TTITLE10=xilia milia
TTITLE11=kapou kapou
TTITLE12=den me katalaves pote
TTITLE13=ti tha les
TTITLE14=geitonissa,xanoumissa
TTITLE15=feygontas na pareis
TTITLE16=k sagapao oso pote
TTITLE17=ti eimouna gia senane
TTITLE18=monos mou to perasa
TTITLE19=siga-siga
TTITLE20=den koimamai tora pia ta vradia
TTITLE21=me xalaei
TTITLE22=oi palies agapes
TTITLE23=sta dosa ola
TTITLE24=den me noiazei
TTITLE25=pare tilef ton kerata
TTITLE26=eisai amartoli
TTITLE27=anavo 2 tsigara
TTITLE28=pws trelenete enas antras
TTITLE29=sagapao koita
TTITLE30=anapse to tsigaro
TTITLE31=sala-sala
TTITLE32=ekaen k to tsampasin!!
TTITLE33=opoia kai na sai
TTITLE34=den thelo tetoious filous
TTITLE35=h wra wtouti thee mou
TTITLE36=kapoio agalma
EXTD=
EXTT0=
EXTT1=
EXTT2=
EXTT3=
EXTT4=
EXTT5=
EXTT6=
EXTT7=
EXTT8=
EXTT9=
EXTT10=
EXTT11=
EXTT12=
EXTT13=
EXTT14=
EXTT15=
EXTT16=
EXTT17=
EXTT18=
EXTT19=
EXTT20=
EXTT21=
EXTT22=
EXTT23=
EXTT24=
EXTT25=
EXTT26=
EXTT27=
EXTT28=
EXTT29=
EXTT30=
EXTT31=
EXTT32=
EXTT33=
EXTT34=
EXTT35=
EXTT36=
PLAYORDER=
